<svg width="53" height="21" viewBox="0 0 53 21" fill="none" xmlns="http://www.w3.org/2000/svg">
<path d="M9.07917 5.10827C9.66499 4.91237 10.2899 4.80789 10.9382 4.80789C13.7761 4.80789 16.1455 6.82957 16.687 9.5173L20.7097 8.69453C19.788 4.12878 15.7627 0.691406 10.9382 0.691406C9.83162 0.691406 8.77194 0.871633 7.77734 1.20597L9.07917 5.10827Z" fill="#C5C5C5"/>
<path d="M4.33266 18.1838L7.05347 15.0991C5.84017 14.0203 5.0747 12.4453 5.0747 10.69C5.0747 8.93738 5.84017 7.36236 7.05347 6.28622L4.33266 3.19885C2.27057 5.03247 0.96875 7.70975 0.96875 10.69C0.96875 13.6729 2.27057 16.3502 4.33266 18.1838" fill="#797979"/>
<path d="M16.687 11.8707C16.1429 14.5558 13.7761 16.5749 10.9408 16.5749C10.2899 16.5749 9.66238 16.4704 9.07917 16.2719L7.77734 20.1795C8.77194 20.5112 9.83422 20.6914 10.9408 20.6914C15.7601 20.6914 19.7828 17.2593 20.7097 12.6987L16.687 11.8707Z" fill="#727272"/>
<path d="M24.2272 15.2271C24.0944 15.0129 23.9173 14.6707 23.808 14.4174C23.1701 12.9338 23.1415 11.3979 23.6778 9.92475C24.2688 8.30794 25.3988 7.07247 26.8595 6.44037C28.695 5.64894 30.7233 5.80304 32.4833 6.85045C33.6003 7.493 34.3918 8.48555 34.9932 9.8908C35.0688 10.071 35.1364 10.2617 35.2041 10.4263L24.2272 15.2271ZM27.8931 8.82511C26.5887 9.38669 25.9169 10.6143 26.0575 12.0509L31.5773 9.66617C30.6269 8.54824 29.3928 8.17734 27.8931 8.82511V8.82511ZM32.2646 14.0125C32.262 14.0125 32.262 14.0151 32.262 14.0151L32.1475 13.9368C31.8168 14.4722 31.3039 14.9084 30.6556 15.1905C29.4214 15.7286 28.2784 15.5901 27.4557 14.8666L27.3802 14.9816C27.3802 14.9816 27.3802 14.9789 27.3776 14.9789L25.9768 17.0816C26.3257 17.3245 26.698 17.5282 27.0886 17.6928C28.6351 18.338 30.2182 18.3066 31.7777 17.6275C32.9051 17.1364 33.7904 16.3894 34.3944 15.4413L32.2646 14.0125ZM39.0393 3.34778V15.0338L40.8514 15.7704L39.823 18.1786L37.8234 17.3428C37.3756 17.1469 37.0684 16.8491 36.8392 16.5122C36.6179 16.17 36.4539 15.6972 36.4539 15.0651V3.34778H39.0393ZM43.7311 12.0587C43.7311 11.0636 44.1711 10.1703 44.8637 9.5643L43.0047 7.48516C41.7445 8.60309 40.9504 10.2356 40.9504 12.0535C40.9478 13.8741 41.7419 15.5092 42.9995 16.6271L44.8559 14.548C44.1659 13.9394 43.7311 13.0513 43.7311 12.0587V12.0587ZM47.0325 15.3734C46.668 15.3734 46.3139 15.3107 45.9858 15.201L45.098 17.8469C45.7046 18.0506 46.353 18.163 47.0299 18.163C49.972 18.1656 52.4273 16.0708 52.9975 13.289L50.2688 12.73C49.959 14.2424 48.6285 15.376 47.0325 15.3734V15.3734ZM47.0403 5.95454C46.366 5.95454 45.7177 6.06424 45.111 6.26537L45.991 8.91392C46.3217 8.80421 46.6732 8.74414 47.0377 8.74414C48.6363 8.74675 49.9694 9.88558 50.2714 11.4005L53.0001 10.8468C52.4403 8.0598 49.985 5.95715 47.0403 5.95454V5.95454Z" fill="white"/>
</svg>
